<?xml version="1.0" encoding="UTF-8"?>
<svg id="Layer_1" data-name="Layer 1" xmlns="http://www.w3.org/2000/svg" xmlns:xlink="http://www.w3.org/1999/xlink" viewBox="0 0 48 48">
  <defs>
    <style>
      .cls-1 {
        fill: url(#linear-gradient-2);
      }

      .cls-2 {
        fill: url(#linear-gradient-17);
      }

      .cls-3 {
        fill: url(#linear-gradient-15);
      }

      .cls-4 {
        fill: url(#linear-gradient-18);
      }

      .cls-5 {
        fill: url(#linear-gradient-14);
      }

      .cls-6 {
        fill: url(#linear-gradient-6);
      }

      .cls-7 {
        fill: url(#linear-gradient-11);
      }

      .cls-8 {
        fill: url(#linear-gradient-10);
      }

      .cls-9 {
        fill: url(#linear-gradient-16);
      }

      .cls-10 {
        fill: url(#linear-gradient-5);
      }

      .cls-11 {
        fill: url(#linear-gradient-7);
      }

      .cls-12 {
        fill: url(#linear-gradient-9);
      }

      .cls-13 {
        fill: url(#linear-gradient-3);
      }

      .cls-14 {
        fill: url(#linear-gradient);
      }

      .cls-15 {
        fill: url(#linear-gradient-19);
      }

      .cls-16 {
        fill: url(#linear-gradient-4);
      }

      .cls-17 {
        fill: url(#linear-gradient-8);
      }

      .cls-18 {
        fill: url(#linear-gradient-12);
      }

      .cls-19 {
        fill: url(#linear-gradient-13);
      }
    </style>
    <linearGradient id="linear-gradient" x1="40.962" y1="10.27" x2="27.109" y2="10.27" gradientUnits="userSpaceOnUse">
      <stop offset="0" stop-color="#f0f2f2"/>
      <stop offset="1" stop-color="#cacfd0"/>
    </linearGradient>
    <linearGradient id="linear-gradient-2" x1="40.962" y1="16.535" x2="27.109" y2="16.535" xlink:href="#linear-gradient"/>
    <linearGradient id="linear-gradient-3" x1="40.962" y1="31.465" x2="27.109" y2="31.465" xlink:href="#linear-gradient"/>
    <linearGradient id="linear-gradient-4" y1="24" x2="27.109" y2="24" xlink:href="#linear-gradient"/>
    <linearGradient id="linear-gradient-5" x1="40.962" y1="37.73" x2="27.109" y2="37.73" xlink:href="#linear-gradient"/>
    <linearGradient id="linear-gradient-6" x1="40.88" y1="21.88" x2="45.12" y2="26.12" gradientUnits="userSpaceOnUse">
      <stop offset="0" stop-color="#6fc6fc"/>
      <stop offset="1" stop-color="#50a7f6"/>
    </linearGradient>
    <linearGradient id="linear-gradient-7" x1="42.293" y1="23.293" x2="43.707" y2="24.707" xlink:href="#linear-gradient"/>
    <linearGradient id="linear-gradient-8" x1="37.814" y1="11.531" x2="42.055" y2="15.772" xlink:href="#linear-gradient-6"/>
    <linearGradient id="linear-gradient-9" x1="39.228" y1="12.945" x2="40.641" y2="14.359" xlink:href="#linear-gradient"/>
    <linearGradient id="linear-gradient-10" x1="29.607" y1="4.522" x2="33.848" y2="8.763" xlink:href="#linear-gradient-6"/>
    <linearGradient id="linear-gradient-11" x1="31.021" y1="5.936" x2="32.434" y2="7.349" xlink:href="#linear-gradient"/>
    <linearGradient id="linear-gradient-12" x1="37.814" y1="32.228" x2="42.055" y2="36.469" xlink:href="#linear-gradient-6"/>
    <linearGradient id="linear-gradient-13" x1="39.228" y1="33.641" x2="40.641" y2="35.055" xlink:href="#linear-gradient"/>
    <linearGradient id="linear-gradient-14" x1="29.607" y1="39.237" x2="33.848" y2="43.478" xlink:href="#linear-gradient-6"/>
    <linearGradient id="linear-gradient-15" x1="31.021" y1="40.651" x2="32.434" y2="42.064" xlink:href="#linear-gradient"/>
    <linearGradient id="linear-gradient-16" x1="8.835" y1="6.954" x2="38.07" y2="62.33" gradientUnits="userSpaceOnUse">
      <stop offset="0" stop-color="#f1d2bd"/>
      <stop offset="1" stop-color="#feb592"/>
    </linearGradient>
    <linearGradient id="linear-gradient-17" x1=".536" y1="-10.231" x2="19.797" y2="32.763" gradientUnits="userSpaceOnUse">
      <stop offset="0" stop-color="#f1d2bd"/>
      <stop offset="1" stop-color="#feb592"/>
    </linearGradient>
    <linearGradient id="linear-gradient-18" x1="-1.69" y1="-9.233" x2="17.571" y2="33.76" xlink:href="#linear-gradient-17"/>
    <linearGradient id="linear-gradient-19" x1="7.106" y1="-13.174" x2="26.367" y2="29.82" xlink:href="#linear-gradient-17"/>
  </defs>
  <path class="cls-14" d="m29.27,13h-3.27c-.553,0-1-.448-1-1s.447-1,1-1h3.27l.899-2.769c.171-.525.731-.812,1.261-.642.524.171.812.735.642,1.26l-.9,2.77c-.261.823-1.025,1.381-1.901,1.381Z"/>
  <path class="cls-1" d="m35.18,19h-9.18c-.553,0-1-.448-1-1s.447-1,1-1h9.18l2.633-2.637c.391-.391,1.023-.391,1.414,0,.391.39.391,1.023,0,1.414l-2.64,2.64c-.369.37-.882.583-1.407.583Z"/>
  <path class="cls-13" d="m38.52,33.93c-.256,0-.512-.098-.707-.293l-2.64-2.64-9.173.003c-.553,0-1-.448-1-1s.447-1,1-1h9.18c.525,0,1.038.213,1.408.584l2.639,2.639c.391.391.391,1.024,0,1.414-.195.195-.451.293-.707.293Z"/>
  <path class="cls-16" d="m41,25h-15c-.553,0-1-.448-1-1s.447-1,1-1h15c.553,0,1,.448,1,1s-.447,1-1,1Z"/>
  <path class="cls-10" d="m31.12,40.46c-.422,0-.813-.269-.951-.691l-.9-2.77h-3.269c-.553,0-1-.447-1-.999s.447-1,1-1h3.27c.876,0,1.641.558,1.903,1.388l.898,2.763c.171.525-.117,1.089-.642,1.26-.104.033-.207.049-.31.049Z"/>
  <circle class="cls-6" cx="43" cy="24" r="3"/>
  <circle class="cls-11" cx="43" cy="24" r="1"/>
  <circle class="cls-17" cx="39.935" cy="13.652" r="3"/>
  <circle class="cls-12" cx="39.935" cy="13.652" r="1"/>
  <circle class="cls-8" cx="31.728" cy="6.643" r="3"/>
  <circle class="cls-7" cx="31.728" cy="6.643" r="1"/>
  <circle class="cls-18" cx="39.935" cy="34.348" r="3"/>
  <circle class="cls-19" cx="39.935" cy="34.348" r="1"/>
  <circle class="cls-5" cx="31.728" cy="41.357" r="3"/>
  <circle class="cls-3" cx="31.728" cy="41.357" r="1"/>
  <path class="cls-9" d="m19.991,46c-.313,0-.629-.021-.945-.063-2.24-.298-4.28-1.799-5.322-3.917-.496-1.008-.737-2.048-.723-3.109-.92.162-1.864.101-2.787-.192-1.853-.587-3.362-2.105-3.941-3.963-.361-1.159-.36-2.345-.004-3.484-2.592-1.228-4.269-3.83-4.269-6.772,0-2.961,1.709-5.57,4.304-6.783-1.1-1.616-1.536-3.62-1.179-5.604.559-3.089,3.125-5.568,6.24-6.03.988-.147,1.982-.099,2.933.134.354-1.139,1.044-2.163,1.981-2.914,1.265-1.013,2.863-1.46,4.484-1.256,2.985.372,5.236,3.011,5.236,6.141v32.556c0,1.625-.743,3.117-1.987,3.99h0c-1.182.829-2.582,1.265-4.021,1.265Z"/>
  <path class="cls-2" d="m15,24.5c0,.552.447,1,1,1s1-.448,1-1c0-1.531-.453-2.986-1.294-4.22.965-.456,1.834-1.118,2.539-1.959.355-.423.3-1.054-.123-1.409-.424-.355-1.055-.298-1.408.123-1.048,1.249-2.584,1.965-4.214,1.965-.964,0-1.915-.255-2.75-.737-.478-.276-1.091-.112-1.366.366-.276.479-.112,1.09.366,1.366,1.139.657,2.436,1.004,3.75,1.004.383,0,.76-.039,1.132-.096.87,1.003,1.368,2.253,1.368,3.596Z"/>
  <path class="cls-4" d="m21.217,32.107c-.398-.071-.809-.107-1.217-.107-.701,0-1.385.116-2.039.317-.183-1.633-1.017-3.105-2.354-4.111-.443-.333-1.069-.243-1.4.197-.332.441-.244,1.068.197,1.4,1.015.764,1.597,1.929,1.597,3.197,0,.091-.02.196-.028.293-.817.576-1.521,1.317-2.035,2.207-.276.479-.112,1.09.366,1.366.157.091.329.134.499.134.346,0,.682-.179.867-.5.89-1.542,2.549-2.5,4.33-2.5.292,0,.583.025.867.076.548.096,1.062-.266,1.159-.81.097-.544-.266-1.063-.81-1.159Z"/>
  <path class="cls-15" d="m20,14c.35,0,.7-.031,1.043-.092.544-.096.906-.615.81-1.159-.096-.543-.605-.909-1.159-.81-.228.04-.461.061-.693.061-1.945,0-3.602-1.39-3.939-3.305-.095-.544-.608-.906-1.158-.812-.544.096-.907.614-.811,1.158.505,2.873,2.99,4.958,5.908,4.958Z"/>
</svg>